#!OML:ASF F:\VICON\USERDATA\INSTALL\rory3\rory3.ASF
:FULLY-SPECIFIED
:DEGREES
720
root 1.72719 16.6694 21.8774 397.999 28.8728 -357.392
lowerback -18.0371 -4.98529 5.99349
upperback -19.0164 -6.8881 0.384393
thorax -11.9838 -4.1014 -3.35222
lowerneck -6.67349 -4.48022 -7.88204
upperneck 6.71399 -5.98211 9.00947
head 3.59878 -2.78406 3.70927
rclavicle 5.66536e-015 4.13472e-014
rhumerus -15.8333 -384.621 -361.095
rradius 29.8545
rwrist 1.36496
rhand 6.19783 4.19925
rfingers 7.12502
rthumb 31.5118 -23.1034
lclavicle 5.66536e-015 4.13472e-014
lhumerus 58.9625 -1.69222 32.4995
lradius 36.6448
lwrist -19.4142
lhand -8.36626 18.339
lfingers 7.12502
lthumb 17.5564 47.5663
rfemur -63.6949 4.13063 381.402
rtibia 41.6376
rfoot 134.505 141.087
rtoes 36.9298
lfemur -22.9514 -4.15738 -17.2958
ltibia 37.6359
lfoot -218.644 -154.657
ltoes 43.9528
721
root 1.72797 16.6706 21.8806 398.034 28.9259 -357.279
lowerback -17.6918 -5.01884 5.98079
upperback -19.0163 -6.92187 0.337088
thorax -12.1807 -4.12445 -3.36398
lowerneck -6.6103 -5.2805 -8.49086
upperneck 6.82369 -7.051 9.38836
head 3.74929 -3.31216 3.85424
rclavicle 6.96243e-014 2.46493e-014
rhumerus -16.7944 -384.19 -361.541
rradius 30.8562
rwrist 0.0402742
rhand 4.49271 5.62424
rfingers 7.12502
rthumb 29.886 -21.9836
lclavicle 6.96243e-014 2.46493e-014
lhumerus 57.8144 -1.81951 33.3464
lradius 37.0754
lwrist -19.9429
lhand -9.38034 16.8672
lfingers 7.12502
lthumb 16.5803 46.1789
rfemur -63.6951 3.78477 381.546
rtibia 41.683
rfoot 134.926 141.2
rtoes 36.8752
lfemur -22.9815 -4.07241 -17.3899
ltibia 37.6706
lfoot -217.938 -153.756
ltoes 43.4057
722
root 1.72989 16.6703 21.8829 398.112 28.9864 -357.133
lowerback -17.403 -5.07994 5.91977
upperback -19.0534 -6.98528 0.33861
thorax -12.3834 -4.15214 -3.29962
lowerneck -6.30161 -6.0876 -9.07088
upperneck 6.71408 -8.12726 9.63557
head 3.79765 -3.85673 3.95577
rclavicle 4.18442e-014 9.93923e-015
rhumerus -17.6154 -384.427 -361.976
rradius 31.5722
rwrist -0.304903
rhand 2.60417 7.85437
rfingers 7.12502
rthumb 28.0823 -20.0635
lclavicle 4.18442e-014 9.93923e-015
lhumerus 56.4895 -2.18226 33.617
lradius 37.4287
lwrist -19.8418
lhand -10.1478 15.0955
lfingers 7.12502
lthumb 15.8413 44.4674
rfemur -63.7546 3.2445 381.811
rtibia 41.7638
rfoot 135.721 141.327
rtoes 36.6306
lfemur -22.964 -4.12703 -17.4981
ltibia 37.6417
lfoot -218.128 -154.083
ltoes 43.5013
723
root 1.73003 16.6687 21.888 398.327 28.9297 -356.87
lowerback -17.28 -5.17738 5.64208
upperback -19.145 -7.0812 0.353813
thorax -12.5299 -4.16666 -3.11836
lowerneck -5.73497 -6.88691 -9.80652
upperneck 6.58133 -9.21457 9.99287
head 3.81873 -4.41371 4.12009
rclavicle -4.25896e-014 -3.3197e-014
rhumerus -18.2607 -384.159 -362.711
rradius 32.3966
rwrist -1.43894
rhand 0.228953 9.59621
rfingers 7.12502
rthumb 25.8097 -18.6729
lclavicle -4.25896e-014 -3.3197e-014
lhumerus 54.8999 -2.73417 33.3994
lradius 37.8888
lwrist -19.3061
lhand -11.3577 13.8924
lfingers 7.12502
lthumb 14.6759 43.3531
rfemur -63.9134 3.21775 381.497
rtibia 41.8568
rfoot 135.787 141.239
rtoes 36.572
lfemur -22.986 -4.15977 -17.7536
ltibia 37.5566
lfoot -218.131 -154.153
ltoes 43.5988
724
root 1.72645 16.6656 21.8939 398.486 28.9427 -356.706
lowerback -17.1588 -5.31489 5.47245
upperback -19.2484 -7.24095 0.398621
thorax -12.7134 -4.22547 -2.96247
lowerneck -4.996 -7.63808 -10.5714
upperneck 6.38163 -10.2684 10.4897
head 3.80861 -4.95577 4.33931
rclavicle 4.03036e-014 3.49861e-014
rhumerus -18.8184 -383.351 -363.793
rradius 33.3257
rwrist -3.36568
rhand -2.68961 10.976
rfingers 7.12502
rthumb 23.0118 -17.6703
lclavicle 4.03036e-014 3.49861e-014
lhumerus 53.0865 -3.23506 33.3389
lradius 38.3092
lwrist -18.8572
lhand -13.4857 13.3875
lfingers 7.12502
lthumb 12.625 42.9859
rfemur -64.0311 3.44417 381.11
rtibia 41.9148
rfoot 135.245 141.253
rtoes 37.0455
lfemur -23.0182 -4.24862 -17.8538
ltibia 37.4897
lfoot -218.646 -154.887
ltoes 44.2724
725
root 1.72684 16.6617 21.8987 398.487 28.9989 -356.674
lowerback -17.0747 -5.38231 5.49712
upperback -19.1278 -7.33689 0.425882
thorax -12.6121 -4.27245 -2.94952
lowerneck -4.68275 -8.43537 -11.303
upperneck 6.1883 -11.3693 11.1162
head 3.89606 -5.50273 4.5697
rclavicle 1.07841e-014 2.52457e-014
rhumerus -19.3881 -383.545 -364.778
rradius 33.9392
rwrist -4.57856
rhand -5.28598 12.8959
rfingers 7.12502
rthumb 20.5186 -16.0398
lclavicle 1.07841e-014 2.52457e-014
lhumerus 51.6578 -3.10329 34.3363
lradius 38.2933
lwrist -19.8391
lhand -16.5874 12.9586
lfingers 7.12502
lthumb 9.63345 42.7184
rfemur -64.0407 3.28209 381.198
rtibia 41.9703
rfoot 135.2 141.515
rtoes 37.2905
lfemur -22.942 -4.24925 -17.8529
ltibia 37.4232
lfoot -218.933 -155.4
ltoes 44.7048
